<svg xmlns="http://www.w3.org/2000/svg" viewBox="0 0 64 64" width="50" height="50"><path fill="#da7200" d="M14 55a4.998 4.998 0 0 1-3.536-8.535l18-18a5 5 0 1 1 7.071 7.07l-18 18A4.98 4.98 0 0 1 14 55z"/><ellipse cx="32" cy="61" opacity=".3" rx="19" ry="3"/><circle cx="35.5" cy="27.5" r="21.5" fill="#a7b3c7"/><circle cx="35.5" cy="27.5" r="14.5" fill="#4ccff1"/><path fill="none" stroke="#fff" stroke-linecap="round" stroke-linejoin="round" stroke-miterlimit="10" stroke-width="3" d="M23.825 21.903a11.553 11.553 0 0 1 6.123-6.123"/><path d="M56.407 22.56C53.929 22.856 52 24.941 52 27.5 52 36.598 44.598 44 35.5 44c-2.841 0-5.655-.747-8.139-2.161a5.002 5.002 0 0 0-6.01.81L14 50c-1.305 1.305-1.717 3.148-1.277 4.813.419.111.846.187 1.277.187 1.28 0 2.559-.488 3.536-1.465l7.352-7.352A21.374 21.374 0 0 0 35.5 49C47.374 49 57 39.374 57 27.5a21.5 21.5 0 0 0-.593-4.94z" opacity=".15"/><path fill="#fff" d="M14.579 32.442C17.064 32.151 19 30.063 19 27.5 19 18.402 26.402 11 35.5 11c2.558 0 4.644-1.928 4.94-4.407A21.5 21.5 0 0 0 35.5 6C23.626 6 14 15.626 14 27.5c0 1.702.204 3.355.579 4.942z" opacity=".3"/></svg>